<?xml version="1.0" encoding="UTF-8"?>
<svg id="Layer_1" xmlns="http://www.w3.org/2000/svg" version="1.1" viewBox="0 0 122.27 45.31">
  <!-- Generator: Adobe Illustrator 29.6.1, SVG Export Plug-In . SVG Version: 2.1.1 Build 9)  -->
  <defs>
    <style>
      .st0 {
        fill: #211915;
      }
    </style>
  </defs>
  <path class="st0" d="M60.24,8c-1.86-1.42-4.05-2.13-6.57-2.13-3.02,0-5.66.84-7.91,2.53-2.25,1.68-3.37,3.95-3.37,6.8,0,2.32.76,4.27,2.29,5.84,1.9,1.95,4.7,2.92,8.4,2.92,2.15,0,4.04-.39,5.68-1.18,1.64-.78,3.13-2.12,4.48-4l-.91-.4c-1,1.06-1.93,1.79-2.8,2.2-.87.41-1.84.61-2.91.61-1.72,0-3.2-.5-4.43-1.51-1.6-1.31-2.48-3.1-2.64-5.36h13.68c-.14-2.79-1.14-4.89-3-6.3ZM49.48,11.53c.15-1.46.65-2.64,1.52-3.54.59-.62,1.34-.93,2.27-.93.62,0,1.12.11,1.49.33.66.38,1.14.93,1.45,1.66.22.52.36,1.35.43,2.49h-7.16ZM85.98,21.34c-.23,0-.44-.05-.61-.15-.18-.1-.31-.25-.4-.45-.09-.2-.13-.69-.13-1.47v-6.62c0-1.84-.12-3.01-.37-3.52-.41-.8-1.3-1.55-2.68-2.23-1.38-.69-3.25-1.03-5.61-1.03-1.95,0-3.84.21-5.65.64-1.81.43-3.23,1.04-4.24,1.83-1.01.8-1.52,1.63-1.52,2.51,0,.62.38,1.16,1.13,1.62.76.46,1.69.69,2.81.69,1.05,0,1.9-.21,2.55-.63.65-.42.97-.93.97-1.52,0-.49-.34-.99-1.01-1.51-.5-.38-.75-.69-.75-.95,0-.29.23-.55.69-.77.75-.35,1.7-.53,2.85-.53.71,0,1.35.12,1.92.37.57.25.95.54,1.16.88.2.33.31,1.15.31,2.44v1.72c-5.49,1.73-9.06,3.11-10.69,4.15-1.64,1.04-2.46,2.21-2.46,3.51,0,.96.47,1.76,1.41,2.4.94.64,2.13.96,3.55.96,2.42,0,5.15-.92,8.19-2.76.18.92.67,1.61,1.47,2.07.8.46,1.91.68,3.33.68,1.21,0,2.29-.2,3.24-.61.95-.41,1.87-1.06,2.76-1.96l-.8-.44c-.48.45-.95.67-1.41.67ZM77.39,19.59c-1.17.68-2.21,1.02-3.09,1.02-.8,0-1.42-.16-1.87-.49-.59-.43-.88-.92-.88-1.48,0-.67.35-1.33,1.04-1.99,1.05-.99,2.65-1.91,4.8-2.77v5.71ZM108.89,6.5c-.6-.42-1.39-.63-2.39-.63-1.16,0-2.36.29-3.6.87-1.24.58-2.69,1.75-4.35,3.51v-3.87h-10.19v.67c.85.06,1.45.17,1.79.33.34.16.6.41.77.75.14.27.21.89.21,1.86v9.43c0,1.48-.19,2.4-.57,2.75-.38.35-1.12.55-2.2.61v.66h13.47v-.66c-1-.04-1.7-.13-2.12-.28-.42-.15-.73-.39-.95-.72-.12-.19-.19-.64-.19-1.33l-.03-1.02v-3.92c0-1.42.28-2.72.85-3.9.37-.77.92-1.36,1.65-1.77.46-.27.95-.4,1.47-.4.23,0,.44.04.61.11.12.05.53.28,1.23.69.69.41,1.51.62,2.45.62.82,0,1.51-.22,2.09-.67.58-.45.87-1.08.87-1.9,0-.77-.3-1.36-.89-1.78ZM40.43,9.39s-1.18.39-2.89,1.02c-.07-.11-.14-.21-.21-.32-1.02-1.41-2.52-2.5-4.49-3.27-1.97-.77-4.1-1.15-6.39-1.15-3.81,0-6.81.91-8.99,2.73-2.19,1.82-3.28,3.95-3.28,6.39s1.07,4.46,3.21,6.26c.35.29.73.56,1.13.8-1.54,1.61-2.62,3.28-2.62,4.83,0,3.9,5.46,5.88,11.55,5.88s6.52,2.91,6.52,3.4-1.63,3.4-7.44,3.4-7.87-3.47-7.87-4.54,1.35-2.34.71-3.05c-.64-.71-5.95.5-5.95,3.9s5.1,6.03,13.26,6.03,14.25-4.54,14.25-8.65-6.38-6.66-11.48-6.66-6.74-1.42-6.74-2.27c0-.15.11-.38.3-.67,1.09.19,2.26.29,3.53.29,4.04,0,7.2-.99,9.49-2.96,1.89-1.63,2.84-3.65,2.84-6.07,0-.65-.08-1.28-.23-1.88,1.85-.99,3.21-1.81,3.21-2.11,0-.85-.07-1.35-1.42-1.35ZM30.03,20.31c-.24.74-.73,1.32-1.46,1.73-.56.3-1.27.46-2.11.46s-1.54-.21-2.18-.6c1.26-1.38,3.04-2.99,4.39-3.86.4-.25,1.04-.61,1.84-1.02-.09,1.51-.25,2.61-.47,3.29ZM26.47,15.49c-1.12.8-2.5,1.77-3.9,2.84-.08-.68-.13-1.39-.13-2.13,0-2.46.11-4.38.33-5.76.21-1.38.66-2.3,1.35-2.77.68-.47,1.51-.7,2.46-.7.79,0,1.43.13,1.92.38.69.35,1.22.92,1.58,1.69.35.76.53,2.16.53,4.19-1.63.75-3.12,1.53-4.13,2.26ZM42.65,31.56h1.13l.37-2h1.89l.15-.79h-1.89l.21-1.14h2.31l.15-.79h-3.43l-.89,4.71ZM80.17,26.85h-1.75l-.89,4.71h1.09l.34-1.81h1c.6,0,1.08-.14,1.42-.41.34-.27.51-.64.51-1.12,0-.44-.15-.78-.45-1.02-.3-.24-.73-.36-1.28-.36ZM80.53,28.8c-.17.13-.41.19-.71.19h-.72l.26-1.39h.58c.28,0,.49.06.63.17.14.11.22.28.22.5s-.08.41-.26.53ZM107.27,31.56h1.06l.17-.98h-1.06l-.17.98ZM103.5,27.53c.25,0,.47.06.65.18.18.12.31.28.38.48l.96-.25c-.12-.36-.36-.64-.72-.86-.36-.21-.79-.32-1.28-.32-.52,0-.94.13-1.28.4-.34.27-.51.61-.51,1.01,0,.32.1.58.31.79.21.21.55.39,1.02.55.05.02.12.04.22.07.59.19.88.41.88.66,0,.17-.07.31-.22.42-.15.11-.34.16-.58.16-.3,0-.57-.07-.79-.21-.22-.14-.37-.32-.45-.56l-1.03.23c.11.42.36.75.75.99.39.24.86.36,1.42.36.62,0,1.12-.14,1.5-.42.38-.28.57-.64.57-1.09,0-.31-.1-.57-.31-.79-.21-.22-.52-.4-.96-.55-.09-.03-.21-.07-.36-.12-.57-.19-.86-.4-.86-.63,0-.16.06-.29.19-.38.12-.09.3-.14.51-.14ZM86.05,26.76c-.3,0-.59.06-.86.17-.28.11-.52.27-.73.48-.28.27-.5.59-.66.96-.16.38-.24.75-.24,1.14,0,.65.19,1.17.56,1.56.38.39.87.59,1.5.59.29,0,.57-.05.83-.16.26-.11.5-.26.73-.47.29-.27.52-.6.68-.99.16-.39.24-.8.24-1.24,0-.61-.19-1.1-.57-1.48-.38-.38-.88-.56-1.48-.56ZM86.79,29.51c-.07.29-.17.54-.28.73-.11.19-.24.33-.39.43-.14.09-.31.14-.49.14-.27,0-.49-.1-.65-.3-.16-.2-.24-.47-.24-.82,0-.3.05-.61.14-.92.09-.32.21-.57.35-.77.1-.14.22-.25.35-.32.13-.07.27-.11.42-.11.29,0,.51.09.66.28.16.19.23.45.23.8,0,.27-.04.55-.11.85ZM93.96,27.19c-.29-.22-.73-.34-1.31-.34h-1.96l-.89,4.71h1.07l.37-1.93h1.03l.53,1.93h1.11l-.61-2.07c.33-.08.6-.24.8-.47.2-.24.3-.52.3-.84,0-.44-.15-.77-.44-.99ZM93,28.74c-.18.12-.43.18-.76.18h-.86l.25-1.34h.74c.31,0,.53.05.68.16.14.1.22.27.22.49s-.09.39-.27.52ZM73.89,27.53c.25,0,.47.06.65.18.18.12.31.28.38.48l.96-.25c-.12-.36-.36-.64-.72-.86-.36-.21-.79-.32-1.28-.32s-.94.13-1.28.4c-.34.27-.51.61-.51,1.01,0,.32.1.58.31.79.21.21.55.39,1.02.55.05.02.12.04.22.07.59.19.88.41.88.66,0,.17-.07.31-.22.42-.15.11-.34.16-.58.16-.3,0-.57-.07-.79-.21-.22-.14-.38-.32-.45-.56l-1.03.23c.11.42.36.75.75.99.38.24.86.36,1.42.36.62,0,1.12-.14,1.5-.42.38-.28.57-.64.57-1.09,0-.31-.1-.57-.31-.79-.2-.22-.53-.4-.96-.55-.09-.03-.21-.07-.36-.12-.57-.19-.86-.4-.86-.63,0-.16.06-.29.19-.38.12-.09.3-.14.51-.14ZM58.62,27.19c-.3-.22-.73-.34-1.31-.34h-1.96l-.89,4.71h1.07l.37-1.93h1.03l.53,1.93h1.11l-.61-2.07c.33-.08.6-.24.8-.47.2-.24.3-.52.3-.84,0-.44-.15-.77-.44-.99ZM57.65,28.74c-.18.12-.43.18-.76.18h-.86l.25-1.34h.74c.31,0,.53.05.68.16.15.1.22.27.22.49s-.09.39-.27.52ZM96.18,27.69h1.3l-.72,3.88h1.12l.72-3.88h1.26l.15-.84h-3.68l-.16.84ZM50.7,26.76c-.3,0-.59.06-.86.17-.28.11-.52.27-.74.48-.28.27-.49.59-.65.96-.16.38-.24.75-.24,1.14,0,.65.19,1.17.56,1.56.38.39.88.59,1.5.59.29,0,.57-.05.83-.16.26-.11.5-.26.73-.47.29-.27.52-.6.68-.99.16-.39.25-.8.25-1.24,0-.61-.19-1.1-.57-1.48-.38-.38-.87-.56-1.48-.56ZM51.45,29.51c-.07.29-.16.54-.28.73-.11.19-.24.33-.38.43-.14.09-.31.14-.49.14-.27,0-.49-.1-.65-.3-.16-.2-.24-.47-.24-.82,0-.3.05-.61.14-.92.09-.32.21-.57.35-.77.1-.14.22-.25.35-.32.13-.07.27-.11.43-.11.29,0,.51.09.66.28.15.19.23.45.23.8,0,.27-.03.55-.11.85Z"/>
</svg>